<svg width="26" height="33" viewBox="0 0 26 33" fill="none" xmlns="http://www.w3.org/2000/svg">
<path d="M21.7357 9.28837H14.2982V20.2565L18.0662 16.4892C18.2826 16.2836 18.5706 16.1707 18.869 16.1746C19.1674 16.1784 19.4525 16.2986 19.6635 16.5096C19.8745 16.7206 19.9947 17.0057 19.9985 17.304C20.0023 17.6024 19.8894 17.8905 19.6839 18.1068L13.9627 23.828C13.7482 24.0424 13.4573 24.1628 13.1539 24.1628C12.8506 24.1628 12.5597 24.0424 12.3451 23.828L6.62394 18.1068C6.41841 17.8905 6.30552 17.6024 6.30934 17.304C6.31317 17.0057 6.43339 16.7206 6.64439 16.5096C6.85539 16.2986 7.14046 16.1784 7.43883 16.1746C7.7372 16.1707 8.02526 16.2836 8.2416 16.4892L12.0097 20.2565V9.28837H4.57219C3.5104 9.2895 2.49242 9.7118 1.74162 10.4626C0.990817 11.2134 0.568519 12.2314 0.567383 13.2932V28.1682C0.568519 29.23 0.990817 30.2479 1.74162 30.9987C2.49242 31.7495 3.5104 32.1718 4.57219 32.173H21.7357C22.7974 32.1718 23.8154 31.7495 24.5662 30.9987C25.317 30.2479 25.7393 29.23 25.7405 28.1682V13.2932C25.7393 12.2314 25.317 11.2134 24.5662 10.4626C23.8154 9.7118 22.7974 9.2895 21.7357 9.28837ZM14.2982 1.27875C14.2982 0.975283 14.1776 0.684244 13.963 0.469659C13.7484 0.255074 13.4574 0.134521 13.1539 0.134521C12.8505 0.134521 12.5594 0.255074 12.3448 0.469659C12.1302 0.684244 12.0097 0.975283 12.0097 1.27875V9.28837H14.2982V1.27875Z" fill="white"/>
</svg>
